# xmcd CD database file
#
# Track frame offsets:
#	150
#	23076
#	51170
#	65854
#	87426
#	112386
#	131930
#	153410
#	170844
#	191282
#	209862
#	229220
#	242889
#
# Disc length: 3472 seconds
#
# Revision: 0
# Processed by: cddbd v1.5.2PL0 Copyright (c) Steve Scherf et al.
# Submitted via: CDex 1.70beta2
#
DISCID=cd0d8e0d
DTITLE=Amaranto y su Grupo - The Best of Amaranto Y su Grupo
DYEAR=1900
DGENRE=Salsa
TTITLE0=Mi verdadero Amor
TTITLE1=A los buenos soneros
TTITLE2=El pasado quedo atras
TTITLE3=A mi que me den frutas
TTITLE4=Lo que tiene esa mujer
TTITLE5=A mi Babalao
TTITLE6=Me das amor
TTITLE7=Piensas que bailas sabroso
TTITLE8=Divina Norma
TTITLE9=La cola y el Taco Taco
TTITLE10=Tiene sazon
TTITLE11=Dame un chance
TTITLE12=La bella venezolana
EXTD=
EXTT0=
EXTT1=
EXTT2=
EXTT3=
EXTT4=
EXTT5=
EXTT6=
EXTT7=
EXTT8=
EXTT9=
EXTT10=
EXTT11=
EXTT12=
PLAYORDER=
